<svg width="1006" height="119" viewBox="0 0 1006 119" fill="none" xmlns="http://www.w3.org/2000/svg">
<g clip-path="url(#clip0_126_6)">
<path fill-rule="evenodd" clip-rule="evenodd" d="M1005.5 119.5C670.2 119.5 335.217 118.5 -0.0839844 118.5C-0.0839844 99.3078 -0.0839844 29.5853 -0.0839844 10.3931C-2.98998 11.1459 2.40602 10.7635 -0.0839844 10.3931C2.52302 9.71694 5.44707 5.46696 9.97607 7.4396C11.6901 8.18743 11.165 9.71694 13.749 10.3931C19.897 0.912247 36.116 2.35614 47.073 5.22498C53.764 6.97756 56.876 1.24585 62.163 3.01037C64.859 3.90956 65.646 7.9335 68.45 6.70172C72.031 5.61532 72.165 3.22645 77.253 3.01037C77.73 3.70343 82.462 8.72316 82.911 8.91634C86.161 10.3164 91.163 7.45752 93.6 9.65421C94.562 10.5215 96.092 14.3483 96.744 15.5602C100.941 12.6137 112.922 8.60765 120.636 11.131C123.502 12.069 125.071 17.0608 129.439 15.5602C130.068 14.8223 130.696 14.0834 131.325 13.3456C135.935 13.3456 140.548 13.3456 145.158 13.3456C148.118 12.3289 153.823 9.78466 156.475 8.91634C159.619 9.40826 162.763 9.90116 165.906 10.3931C170.985 8.41446 170.666 3.18662 179.739 3.01037C182.501 7.45354 184.861 5.11644 190.428 6.70172C190.727 6.78736 191.662 8.30194 192.314 8.17846C193.911 7.87375 194.87 5.07162 197.973 5.96384C201.061 6.85108 203.029 11.0334 205.518 11.8688C208.608 12.9074 213.003 10.1421 216.206 12.6077C217.82 13.8504 219.413 17.5507 221.236 18.5127C223.331 18.7596 225.429 19.0049 227.524 19.2514C228.361 20.2362 229.201 21.2194 230.039 22.2042C232.69 23.0517 233.087 20.5093 234.44 19.9896C237.584 19.9896 240.728 19.9896 243.871 19.9896C245.397 19.4403 246.794 17.1285 249.53 17.7748C252.645 18.5107 253.745 21.9237 255.818 22.9425C258.961 22.6959 262.105 22.4508 265.249 22.2042C266.07 22.4419 268.449 24.2654 269.021 24.419C272.16 25.2605 277.159 22.2721 279.081 21.4661C282.015 21.4661 284.95 21.4661 287.884 21.4661C292.139 19.9881 298.046 19.8627 302.345 18.5127C306.118 18.2667 309.89 18.0218 313.663 17.7748C316.273 16.5789 320.37 13.4521 323.094 12.6077C328.862 10.8193 340.772 19.2853 345.1 18.5127C355.853 16.5938 364.208 10.1093 374.023 8.17846C379.772 7.04725 384.969 12.1775 391.628 9.65421C395.142 8.32285 396.266 6.08633 401.688 5.96384C401.791 6.12616 419.705 19.1762 419.921 19.2514C423.161 20.3839 432.056 17.5786 436.898 18.5127C439.091 18.9369 438.364 21.5118 441.299 20.7278C441.928 19.9896 442.556 19.2513 443.185 18.5127C448.215 18.5127 453.245 18.5127 458.275 18.5127C458.904 17.5288 459.533 16.545 460.161 15.5602C463.485 13.1653 468.804 14.4469 472.108 15.5602C475.46 15.5602 478.815 15.5602 482.168 15.5602C485.749 16.8925 499.36 22.5173 502.288 17.0369C503.765 14.7825 503.443 11.9903 504.174 10.3931C504.916 9.80058 505.231 9.8215 506.689 9.65421C509.455 12.7879 516.622 7.01439 519.264 8.17846C521.114 8.99301 521.209 10.9696 524.923 11.131C524.923 10.639 524.923 10.1461 524.923 9.65421C524.45 8.86356 524.544 8.95617 524.294 7.4396C525.581 6.91383 527.233 6.7057 529.324 6.70172C530.044 7.77617 530.583 8.32584 531.21 9.65421C535.816 5.3863 551.833 -1.23863 561.39 2.27249C563.428 3.02132 563.508 6.19089 567.049 5.22498C567.468 4.73406 567.888 4.24015 568.306 3.74923C573.545 3.99519 578.786 4.24015 584.025 4.48711C585.918 3.58792 591.026 -0.643157 595.342 0.795746C595.971 1.53462 596.6 2.27249 597.229 3.01037C600.373 3.25732 603.516 3.50228 606.66 3.74923C607.289 4.4871 607.918 5.22498 608.546 5.96384C611.924 7.5083 615.063 5.98675 617.978 7.4396C620.042 8.46924 621.273 11.1001 623.636 11.8688C628.875 12.1158 634.116 12.3607 639.355 12.6077C640.551 13.0249 641.698 15.1688 642.499 15.5602C646.061 15.5602 649.625 15.5602 653.188 15.5602C655.129 12.6625 661.457 7.8399 664.505 6.70172C670.793 6.94867 677.08 7.19364 683.368 7.4396C683.786 6.70172 684.206 5.96385 684.625 5.22498C691.986 1.31256 702.81 10.0884 707.26 12.6077C710.455 14.416 711.862 10.3244 714.805 11.131C719.004 12.2801 724.123 16.547 729.266 17.0369C733.845 9.5397 740.039 16.6725 746.242 17.7748C752.4 18.8702 756.675 10.7326 763.848 14.0834C767.157 15.6309 771.901 20.5949 778.309 18.5127C782.275 17.2241 786.196 12.4364 790.255 11.131C793.921 9.95295 797.645 12.6276 800.315 13.3456C807.416 15.2545 810.92 9.43714 816.663 11.131C819.23 11.8887 820.787 14.5535 822.95 15.5602C826.202 17.0738 828.743 16.6277 831.753 18.5127C832.591 19.4979 833.429 20.4812 834.268 21.4661C839.298 21.4661 844.328 21.4661 849.358 21.4661C850.348 21.8588 851.509 24.0277 852.501 24.419C855.378 25.5543 872.36 25.479 874.508 24.419C876.121 23.6231 879.187 20.6998 881.424 19.9896C884.701 18.9487 885.841 21.2298 888.969 21.4661C890.207 19.1244 891.832 17.503 893.37 15.5602C900.339 15.4825 906.833 16.4723 912.232 17.0369C913.559 14.5007 914.356 13.484 917.891 13.3456C919.165 14.9109 919.741 15.3023 922.293 15.5602C923.532 13.4581 924.186 13.3356 927.323 13.3456C929.829 16.2503 931.904 14.0984 936.125 15.5602C938.455 16.3668 945.194 22.9365 948.7 21.4661C949.522 21.122 951.238 18.7188 952.473 18.5127C955.653 17.9849 957.277 23.7796 961.275 21.4661C966.164 18.6372 969.718 13.1195 976.365 12.6077C984.818 21.4365 998.945 13.2838 1005.5 11.8688C1005.5 30.8148 1005.5 100.554 1005.5 119.5Z" fill="white"/>
</g>
<defs>
<clipPath id="clip0_126_6">
<rect width="1006" height="119" fill="white"/>
</clipPath>
</defs>
</svg>
