<svg width="1006" height="119" viewBox="0 0 1006 119" fill="none" xmlns="http://www.w3.org/2000/svg">
<path fill-rule="evenodd" clip-rule="evenodd" d="M0 0C335.3 0 670.699 1 1006 1C1006 20.2735 1006 90.7745 1006 110.048C1003.51 109.676 1001.99 107.809 999.084 108.565C996.477 109.244 993.553 113.512 989.024 111.531C987.31 110.78 987.835 109.244 985.251 108.565C979.103 118.086 962.884 116.636 951.927 113.755C945.236 111.995 942.124 117.751 936.837 115.979C934.141 115.076 933.354 111.035 930.55 112.272C926.969 113.363 926.835 115.762 921.747 115.979C921.27 115.283 916.538 110.242 916.089 110.048C912.839 108.642 907.837 111.513 905.4 109.307C904.438 108.436 902.908 104.593 902.256 103.376C898.059 106.335 886.078 110.358 878.364 107.824C875.498 106.882 873.929 101.869 869.561 103.376C868.932 104.117 868.304 104.859 867.675 105.6C863.065 105.6 858.452 105.6 853.842 105.6C850.882 106.621 845.177 109.176 842.525 110.048C839.381 109.554 836.237 109.059 833.094 108.565C828.015 110.552 828.334 115.802 819.261 115.979C816.499 111.517 814.139 113.864 808.572 112.272C808.273 112.186 807.338 110.665 806.686 110.789C805.089 111.095 804.13 113.909 801.027 113.013C797.939 112.122 795.971 107.922 793.482 107.083C790.392 106.04 785.997 108.817 782.794 106.341C781.18 105.093 779.587 101.377 777.764 100.411C775.669 100.163 773.571 99.9167 771.476 99.6691C770.639 98.6802 769.799 97.6928 768.961 96.7038C766.31 95.8527 765.913 98.4059 764.56 98.9278C761.416 98.9278 758.272 98.9278 755.129 98.9278C753.603 99.4794 752.206 101.801 749.47 101.152C746.355 100.413 745.255 96.9855 743.182 95.9624C740.039 96.21 736.895 96.4562 733.751 96.7038C732.93 96.4651 730.551 94.6339 729.979 94.4797C726.84 93.6346 721.841 96.6356 719.919 97.4451C716.985 97.4451 714.05 97.4451 711.116 97.4451C706.861 98.9293 700.954 99.0553 696.655 100.411C692.882 100.658 689.11 100.904 685.337 101.152C682.727 102.353 678.63 105.493 675.906 106.341C670.138 108.137 658.228 99.6351 653.9 100.411C643.147 102.338 634.792 108.85 624.977 110.789C619.228 111.925 614.031 106.773 607.372 109.307C603.858 110.644 602.734 112.89 597.312 113.013C597.209 112.85 579.295 99.7447 579.079 99.6691C575.839 98.5319 566.944 101.349 562.102 100.411C559.909 99.985 560.636 97.3992 557.701 98.1865C557.072 98.9278 556.444 99.6692 555.815 100.411C550.785 100.411 545.755 100.411 540.725 100.411C540.096 101.399 539.467 102.387 538.839 103.376C535.515 105.781 530.196 104.494 526.892 103.376C523.54 103.376 520.185 103.376 516.832 103.376C513.251 102.038 499.64 96.3894 496.712 101.893C495.235 104.157 495.557 106.961 494.826 108.565C494.084 109.16 493.769 109.139 492.311 109.307C489.545 106.16 482.378 111.958 479.736 110.789C477.886 109.971 477.791 107.986 474.077 107.824C474.077 108.318 474.077 108.813 474.077 109.307C474.55 110.101 474.456 110.008 474.706 111.531C473.419 112.059 471.767 112.268 469.676 112.272C468.956 111.193 468.417 110.641 467.79 109.307C463.184 113.593 447.167 120.246 437.61 116.72C435.572 115.968 435.492 112.785 431.951 113.755C431.532 114.248 431.112 114.744 430.694 115.237C425.455 114.99 420.214 114.744 414.975 114.496C413.082 115.399 407.974 119.648 403.658 118.203C403.029 117.461 402.4 116.72 401.771 115.979C398.627 115.731 395.484 115.485 392.34 115.237C391.711 114.496 391.082 113.755 390.454 113.013C387.076 111.462 383.937 112.99 381.022 111.531C378.958 110.497 377.727 107.855 375.364 107.083C370.125 106.835 364.884 106.589 359.645 106.341C358.449 105.922 357.302 103.769 356.501 103.376C352.939 103.376 349.375 103.376 345.812 103.376C343.871 106.286 337.543 111.129 334.495 112.272C328.207 112.024 321.92 111.778 315.632 111.531C315.214 112.272 314.794 113.013 314.375 113.755C307.014 117.684 296.19 108.871 291.74 106.341C288.545 104.525 287.138 108.634 284.195 107.824C279.996 106.67 274.877 102.385 269.734 101.893C265.155 109.422 258.961 102.259 252.758 101.152C246.6 100.052 242.325 108.224 235.152 104.859C231.843 103.305 227.099 98.3199 220.691 100.411C216.725 101.705 212.804 106.513 208.745 107.824C205.079 109.007 201.355 106.321 198.685 105.6C191.584 103.683 188.08 109.525 182.337 107.824C179.77 107.063 178.213 104.387 176.05 103.376C172.798 101.856 170.257 102.304 167.247 100.411C166.409 99.4216 165.571 98.4341 164.732 97.4451C159.702 97.4451 154.672 97.4451 149.642 97.4451C148.652 97.0507 147.491 94.8726 146.499 94.4797C143.622 93.3395 126.64 93.4152 124.492 94.4797C122.879 95.2789 119.813 98.2146 117.576 98.9278C114.299 99.9731 113.159 97.6824 110.031 97.4451C108.793 99.7967 107.168 101.425 105.63 103.376C98.6609 103.454 92.1672 102.46 86.7675 101.893C85.4408 104.44 84.6436 105.461 81.1087 105.6C79.8349 104.028 79.259 103.635 76.7075 103.376C75.4676 105.487 74.8137 105.61 71.6775 105.6C69.1713 102.683 67.0964 104.844 62.875 103.376C60.5449 102.566 53.8059 95.9684 50.3 97.4451C49.4776 97.7906 47.7624 100.204 46.5275 100.411C43.3473 100.941 41.7226 95.1218 37.725 97.4451C32.8358 100.286 29.2821 105.827 22.635 106.341C14.1821 97.4748 6.55535 107.886 0 109.307C0 90.2807 0 19.0259 0 0Z" fill="white"/>
</svg>
